<?xml version="1.0" encoding="utf-8"?>
<!-- Generator: Adobe Illustrator 27.1.1, SVG Export Plug-In . SVG Version: 6.00 Build 0)  -->
<svg version="1.1" id="a4ccb794-1d9f-4a88-b0ee-29508e027061"
	 xmlns="http://www.w3.org/2000/svg" xmlns:xlink="http://www.w3.org/1999/xlink" x="0px" y="0px" viewBox="0 0 876.9 876.8"
	 style="enable-background:new 0 0 876.9 876.8;" xml:space="preserve">
<style type="text/css">
	.st0{fill:none;}
	.st1{fill:#7E57C2;}
	.st2{font-family:'Gotham-Bold';}
	.st3{font-size:50px;}
</style>
<g>
	<path class="st0" d="M643.4,512.9c-3.3-5.7-7-11.5-11.1-17.4c-7.1-10.1-14.7-19.8-22.8-29.2c-13.7,13.5-28.6,26.8-44.5,39.8
		c-2.5,29.1-7.2,58-14.1,86.5c11.1,3,22.4,5.4,33.8,7C611.1,575.8,631.2,546.1,643.4,512.9z"/>
	<path class="st0" d="M631.7,599.4c10.4-2.2,20.1-6.5,25.5-14.5c4.7-7,5.8-16.9,3.7-28.7C652.7,571.6,642.9,586,631.7,599.4z"/>
	<path class="st0" d="M334.6,629.3c1.6,0.9,3.2,1.7,4.8,2.5c-0.4-1.1-0.8-2.3-1.2-3.4C337,628.7,335.8,629,334.6,629.3z"/>
	<path class="st0" d="M268.7,638.7c-4,0-7.8-0.2-11.4-0.4c33.4,30.3,73.8,51.7,117.6,62.4c-5.8-7.6-11-15.6-15.6-23.9
		c-26.4-8.8-51.1-21.9-73.2-38.8C280.1,638.4,274.3,638.7,268.7,638.7L268.7,638.7z"/>
	<path class="st0" d="M479.3,566.1c12.2,5.6,24.2,10.6,36,14.9c3.3-13.9,6.2-28.5,8.4-43.7c-4.2,2.9-8.4,5.8-12.7,8.7
		C500.4,553,489.9,559.7,479.3,566.1z"/>
	<path class="st0" d="M269.1,466.3c-8.1,9.3-15.7,19.1-22.8,29.2c-4.4,6.4-8.4,12.6-11.8,18.7c12.3,32.8,32.3,62.1,58.3,85.5
		c11.8-1.6,23.4-4,34.9-7.1c-6.8-28.4-11.6-57.3-14.1-86.5C297.7,493.1,282.8,479.8,269.1,466.3z"/>
	<path class="st0" d="M222.2,412.9c-2,17.2-2,34.6,0.3,51.8c6.3-8.5,13.3-17.1,20.8-25.8C235.7,430.2,228.6,421.5,222.2,412.9z"/>
	<path class="st0" d="M367.8,546c-4.3-2.9-8.5-5.8-12.7-8.7c2.3,15.2,5.1,29.8,8.4,43.7c11.7-4.4,23.7-9.3,35.9-14.9
		C388.9,559.7,378.3,553,367.8,546z"/>
	<path class="st0" d="M373.9,617c1.6,4.7,3.3,9.4,5,13.8c2.6,6.7,5.4,13,8.2,18.8c34.4,8.4,70.3,8.3,104.6-0.3
		c2.8-5.8,5.5-11.9,8.1-18.5c1.7-4.5,3.4-9.1,5-13.8c-22.4-8.2-44.3-17.8-65.5-28.8C418.2,599.1,396.3,608.7,373.9,617z"/>
	<path class="st0" d="M237.6,169c7,1.2,13.7-3.5,14.9-10.5l0,0c0.5-3.6-0.5-7.3-2.7-10.2c-2-3.1-5.2-5.2-8.8-5.8
		c-6.9-1.3-13.5,3.3-14.7,10.2c0,0.1,0,0.1,0,0.2C225.4,160.4,230.3,167.3,237.6,169z"/>
	<path class="st0" d="M413.5,688.4c8.6,8.3,17.4,12.8,25.9,12.8s17.4-4.6,26-12.9c-8.9,0.9-17.8,1.4-26.7,1.4
		C430.2,689.7,421.8,689.2,413.5,688.4z"/>
	<path class="st0" d="M255.9,239.9c4.1-0.3,8.3-0.5,12.9-0.5c4.7,0,9.5,0.2,14.4,0.6c23.3-18.4,49.6-32.5,77.8-41.7
		c4.5-7.8,9.5-15.3,15.1-22.4C331.2,186.6,289.8,208.6,255.9,239.9z"/>
	<path class="st0" d="M431,25.9V15c-32,0.5-63.9,4.7-94.9,12.5l2.8,10.6C369,30.5,399.9,26.5,431,25.9z"/>
	<path class="st0" d="M185.3,344.9c-22.4,60.6-22.3,127.1,0.3,187.6c3-9,6.6-17.8,10.9-26.2c-12.6-44.3-12.7-91.1-0.5-135.5
		C191.7,362.5,188.2,353.8,185.3,344.9z"/>
	<path class="st0" d="M225.7,85l-5.5-9.5c-27.4,16.5-52.9,36.1-75.9,58.4l7.7,7.7C174.5,120.1,199.1,101.1,225.7,85z"/>
	<path class="st0" d="M655.2,463.2c2-16.3,2-32.7,0.2-49c-6.1,8.2-12.8,16.4-20,24.6C642.6,447.1,649.2,455.2,655.2,463.2z"/>
	<path class="st0" d="M324.4,41.9l-2.8-10.6c-30.8,8.9-60.4,21.2-88.4,36.8l5.5,9.5C265.8,62.4,294.6,50.5,324.4,41.9z"/>
	<path class="st0" d="M708.3,438.4c0-30.9-5.3-61.6-15.7-90.7c-2.9,8.5-6.5,16.8-10.6,24.7c11.7,43.3,11.5,89-0.5,132.3
		c4.2,8.1,7.8,16.5,10.8,25.2C702.9,500.6,708.3,469.6,708.3,438.4z"/>
	<path class="st0" d="M340.4,243.3c-3,1.5-5.9,3.1-8.9,4.8c2.2,0.5,4.4,1.1,6.6,1.7C338.9,247.6,339.7,245.4,340.4,243.3z"/>
	<path class="st0" d="M620.8,239.8c-33.3-30.7-73.8-52.4-117.7-63.3c5.5,7.1,10.5,14.6,14.9,22.4c27.6,9.2,53.5,23.1,76.3,41.2
		c5.3-0.4,10.6-0.6,15.6-0.6C613.8,239.4,617.4,239.5,620.8,239.8z"/>
	<path class="st0" d="M221.5,584.9c5.1,7.6,14.1,11.9,23.9,14.2c-10.7-12.7-20-26.5-28-41.1C215.8,569,217,578.2,221.5,584.9z"/>
	<path class="st0" d="M546.3,248.3c-2.5-1.4-5.1-2.8-7.7-4.2c0.7,1.9,1.3,3.7,2,5.7C542.5,249.2,544.4,248.7,546.3,248.3z"/>
	<path class="st0" d="M801.2,220.2c-16.5-27.4-36.1-52.8-58.3-75.8l-7.7,7.7c21.6,22.3,40.5,47,56.6,73.5L801.2,220.2z"/>
	<path class="st0" d="M850.9,430.6h10.9c-0.6-32-4.8-63.8-12.5-94.8l-10.6,2.8C846.3,368.7,850.4,399.6,850.9,430.6z"/>
	<path class="st0" d="M619.4,638.4c-3,0.2-6.1,0.3-9.4,0.3c-5.9,0-12.1-0.3-18.4-0.9c-21.7,16.6-45.9,29.6-71.8,38.4
		c-4.6,8.3-9.7,16.3-15.5,23.9C547.1,689.3,586.6,668.1,619.4,638.4z"/>
	<path class="st0" d="M834.9,324.2l10.6-2.8c-8.9-30.7-21.2-60.4-36.8-88.3l-9.5,5.5C814.3,265.6,826.3,294.4,834.9,324.2z"/>
	<path class="st0" d="M539.6,631c1.2-0.6,2.5-1.3,3.7-1.9c-0.9-0.2-1.8-0.5-2.7-0.7C540.2,629.2,539.9,630.1,539.6,631z"/>
	<path class="st0" d="M540.8,27.5c-31.1-7.7-62.9-11.9-94.9-12.4V26c31.1,0.5,61.9,4.6,92.1,12.1L540.8,27.5z"/>
	<path class="st0" d="M141.6,152.2l-7.7-7.7c-22.2,23-41.8,48.5-58.4,75.9l9.5,5.5C101,199.3,120,174.6,141.6,152.2z"/>
	<path class="st0" d="M52.1,344.3c12.4-11.3,28.4-17.8,45.2-18h1.2c1.4,0,2.7,0.1,4.1,0.2c2.6-7.9,5.6-15.7,8.8-23.5l13.8,5.7
		c-2.8,6.7-5.3,13.5-7.6,20.3c20.2,5.9,36.6,20.7,44.7,40.1c4.3-17.1,10.2-33.9,17.7-49.9c-1.6-17.8,1.9-33.6,10.6-46.7
		c6.7-10,18.6-21.3,39.4-27.8c43.4-46.8,101.3-77.7,164.4-87.6c13.9-11.3,29-17.5,45-17.5c16.2,0,31.5,6.3,45.5,17.9
		c61.8,10.3,118.5,40.6,161.3,86.4c22.5,6.3,35.1,18.1,42.1,28.6c9.3,13.9,12.7,30.9,10.3,50.1c6.7,15,12.1,30.6,16.1,46.5
		c8.1-19.4,24.5-34.2,44.7-40.1c-2.3-6.8-4.9-13.6-7.6-20.3l13.8-5.7c3.2,7.7,6.1,15.6,8.8,23.5c1.4-0.1,2.7-0.2,4.1-0.2h1.2
		c16.8,0.3,32.9,6.7,45.2,18c-42.4-174-199.5-303.5-386.4-303.5C251.6,40.8,94.5,170.3,52.1,344.3z M736.4,221.5l19,28.7l-7.8,5.1
		L734.2,235l-7,4.6l12.6,19l-7.5,5l-12.6-19l-7.5,5l13.8,20.8l-7.8,5.1l-19.3-29.1L736.4,221.5z M715,194.2c2.5,2.7,4.4,6,5.5,9.5
		c1.1,3,1.3,6.3,0.5,9.4l-9.2-1c0.5-4.1-0.9-8.2-3.8-11.2c-2.7-3.1-5.8-4.7-9.2-4.8c-3.4-0.2-6.7,1.2-9.8,4c-3.2,2.8-4.8,6-4.9,9.6
		c0,3.7,1.5,7.3,4.1,10c2,2.3,4.6,3.9,7.6,4.6l3.5-3.2l-7.6-8.5l6.7-6l13.9,15.6l-13.6,12.1c-3.3,0-6.6-0.8-9.6-2.2
		c-3.1-1.5-5.9-3.5-8.2-6.1c-4.7-5.3-7-11.1-6.9-17.3c0.2-6.3,2.8-11.7,8-16.3c4.5-4.2,10.5-6.4,16.7-6.1
		C705.1,186.4,710.4,189.1,715,194.2z M662.5,145.8l26.3,22.1l-6,7.1l-18.7-15.7l-5.4,6.4l17.4,14.7l-5.8,6.9L653,172.6l-5.8,6.9
		l19.1,16.1l-6,7.1l-26.7-22.5L662.5,145.8z M623.1,119.5l8.4,5.3l-19.1,30l20.5,13l-5,7.9L599,157.4L623.1,119.5z M589.9,102.7
		L574.8,135l22,10.3l-4,8.4l-31-14.6l19.1-40.7L589.9,102.7z M516.4,100.8c3.9-12,16.7-18.6,28.7-14.8c12,3.9,18.6,16.7,14.8,28.7
		s-16.7,18.6-28.7,14.8c-5.6-1.8-10.3-5.7-13.1-10.9C515,113.1,514.4,106.7,516.4,100.8L516.4,100.8z M468.3,93.4
		c0.7-6.1,3.9-11.7,8.8-15.4c4.9-3.8,10.8-5.2,17.6-4.2c3.7,0.5,7.3,1.8,10.4,3.9c2.7,1.7,4.9,4.2,6.3,7.2l-7.6,5.1
		c-1-1.8-2.5-3.3-4.3-4.4c-1.7-1.1-3.6-1.8-5.6-2.1c-3.6-0.7-7.3,0.1-10.3,2.2c-2.8,2.1-4.6,5.2-5.1,9.3
		c-1.4,7.1,3.3,13.9,10.3,15.3c0.3,0.1,0.7,0.1,1.1,0.2c4.8,0.8,9.7-0.7,13.1-4.1l4.9,7.1c-2.4,2.6-5.5,4.6-9,5.6
		c-3.7,1.1-7.5,1.4-11.3,0.8c-6.9-1-12.1-3.9-15.6-8.7C468.6,106.2,467.3,100.3,468.3,93.4z M401.6,77.7c4.1-4.7,9.5-7.3,16.3-7.7
		c3.7-0.3,7.4,0.3,10.9,1.6c3.1,1,5.7,2.9,7.7,5.4l-6.5,6.6c-2.9-2.9-7-4.4-11.2-4c-4.1,0.2-7.3,1.6-9.5,4.2s-3.2,5.9-3,10.2
		c0.3,4.3,1.7,7.5,4.5,9.8c2.9,2.3,6.7,3.4,10.4,3c3-0.1,5.9-1.2,8.3-3.1l-0.3-4.7L418,99.6l-0.5-9l20.9-1.2l1.1,18.1
		c-2.1,2.6-4.7,4.7-7.7,6.2c-3.1,1.6-6.5,2.5-9.9,2.7c-7.1,0.4-13-1.4-17.8-5.4s-7.4-9.5-7.8-16.4C395.6,88.5,397.6,82.4,401.6,77.7
		L401.6,77.7z M156.9,278.8l-38-24l5.3-8.4l30.1,19.1l13-20.5l7.9,5L156.9,278.8z M349,81l27,21.5l-5.6-26.1l9.5-2l9.4,43.9
		l-7.5,1.6l-26.9-21.5l5.6,26.1l-9.5,2l-9.4-44L349,81z M326,87.7l14.3,42.6l-9.4,3.2l-14.3-42.6L326,87.7z M267.2,112.1l22.3,13.2
		l3.1-25.3l8.1-3.9l19.4,40.6l-9,4.3l-11.6-24.3l-2.8,21.2l-2.4,1.1l-18.7-11.1l11.7,24.5l-9,4.3l-19.4-40.6L267.2,112.1z
		 M216.4,151.8c2.1-12.9,14.2-21.8,27.1-19.7c12.9,2.1,21.8,14.2,19.7,27.1c-2.1,12.9-14.2,21.8-27.1,19.7c-6.3-1-12-4.5-15.7-9.8
		C216.8,164.1,215.3,157.8,216.4,151.8L216.4,151.8z M185.8,169.5c2.7-2.6,5.9-4.6,9.5-5.8c3.1-1.1,6.4-1.3,9.6-0.6l-0.6,9.1
		c-2.1-0.3-4.2-0.1-6.1,0.6c-1.9,0.7-3.7,1.7-5.1,3.1c-2.7,2.4-4.4,5.8-4.6,9.5c-0.1,3.5,1.3,6.8,4.1,9.8c4.7,5.4,13,6,18.4,1.3
		c0.3-0.2,0.5-0.5,0.8-0.7c3.6-3.3,5.4-8.1,4.8-12.9l8.7,0.5c0.6,3.5,0.2,7.2-1.1,10.5c-1.4,3.6-3.6,6.8-6.4,9.4
		c-5,4.8-10.5,7.1-16.5,6.9c-6-0.2-11.3-2.8-16.2-7.9c-4.4-4.3-6.8-10.3-6.7-16.4C178.4,179.7,180.9,174.2,185.8,169.5L185.8,169.5z
		 M164.1,191.8l11.3,32.2l12.6,10l-6.2,7.8l-12.6-10l-33.8-3.8l7.4-9.3l21.1,2.3l-6.9-20.2L164.1,191.8z"/>
	<path class="st0" d="M643.6,68c-28-15.6-57.6-27.9-88.4-36.7l-2.8,10.6c29.8,8.6,58.6,20.6,85.7,35.6L643.6,68z"/>
	<path class="st0" d="M657.2,293.2c-4.9-7.4-13.5-11.6-22.9-13.9c10.3,12.7,19.3,26.3,27,40.7C662.9,309.1,661.7,299.9,657.2,293.2z
		"/>
	<path class="st0" d="M732.3,133.8c-23-22.2-48.4-41.8-75.8-58.3L651,85c26.6,16,51.2,35,73.6,56.6L732.3,133.8z"/>
	<path class="st0" d="M221.5,293.2c-4.2,6.3-5.6,14.8-4.3,24.9c7.4-13.6,16-26.5,25.7-38.5C234.1,282.1,226.2,286.2,221.5,293.2z"/>
	<path class="st0" d="M609.7,411.7c8-9.3,15.6-19,22.6-29c4.4-6.3,8.2-12.4,11.6-18.3c-11.8-32.8-31.3-62.3-56.9-86
		c-12.2,1.6-24.3,4.1-36.1,7.3c6.8,28.4,11.5,57.2,14.1,86.3C581.2,385,596.1,398.3,609.7,411.7z"/>
	<path class="st0" d="M399.5,312c-12.2-5.6-24.2-10.6-36-14.9c-3.3,13.9-6.2,28.5-8.4,43.6c4.2-2.9,8.4-5.8,12.7-8.7
		C378.3,325,388.9,318.3,399.5,312z"/>
	<path class="st0" d="M313.7,371.9c2.5-29.1,7.2-58,14.1-86.3c-12.2-3.3-24.7-5.8-37.2-7.5c-25.3,23.4-44.6,52.5-56.6,84.8
		c3.6,6.4,7.7,12.9,12.4,19.7c7,10.1,14.6,19.7,22.6,29C282.6,398.3,297.5,385,313.7,371.9z"/>
	<path class="st0" d="M294.6,439c5.2,5.2,10.6,10.3,16.2,15.4c-0.1-5.1-0.2-10.2-0.2-15.4c0-5.2,0.1-10.3,0.2-15.4
		C305.2,428.8,299.8,433.9,294.6,439z"/>
	<path class="st0" d="M504.8,261.1c-1.6-4.7-3.3-9.4-5-13.8c-3-7.7-6.2-14.7-9.5-21.3c-33.4-8.2-68.3-8.3-101.8-0.3
		c-3.3,6.6-6.5,13.8-9.6,21.6c-1.8,4.5-3.4,9.1-5,13.8c22.4,8.2,44.3,17.8,65.5,28.8C460.6,279,482.4,269.4,504.8,261.1z"/>
	<path class="st0" d="M584.1,439c-5.2-5.2-10.6-10.3-16.2-15.4c0.1,5.1,0.2,10.2,0.2,15.4c0,5.2-0.1,10.3-0.2,15.4
		C573.5,449.3,578.9,444.2,584.1,439z"/>
	<path class="st0" d="M490.2,363.1c-16.8-11.3-33.9-21.6-50.8-30.9c-17,9.3-34,19.6-50.8,30.9c-13.5,9-26.5,18.4-38.9,28
		c-1.1,15.7-1.7,31.7-1.7,47.9s0.6,32.3,1.7,47.9c12.4,9.6,25.4,19,38.9,28c16.8,11.3,33.9,21.6,50.8,30.9c17-9.3,34-19.6,50.8-30.9
		c13.5-9,26.5-18.4,38.9-28c1.1-15.7,1.7-31.7,1.7-47.9s-0.6-32.3-1.7-47.9C516.7,381.5,503.7,372.1,490.2,363.1z M439.4,466.2
		c-15.3,0-27.6-12.4-27.6-27.6s12.4-27.6,27.6-27.6c15.3,0,27.6,12.4,27.6,27.6l0,0C467,453.8,454.6,466.2,439.4,466.2L439.4,466.2z
		"/>
	<path class="st0" d="M511,332.1c4.3,2.9,8.5,5.8,12.7,8.7c-2.3-15.2-5.1-29.8-8.4-43.6c-11.7,4.4-23.7,9.3-36,14.9
		C489.8,318.3,500.4,325,511,332.1z"/>
	<path class="st0" d="M462.4,187.1c-7.7-6.6-15.5-10.2-23-10.2s-15.2,3.5-22.9,10.1c7.4-0.6,14.8-1,22.3-1
		C446.7,185.9,454.6,186.4,462.4,187.1z"/>
	<path class="st0" d="M651.6,791.5l5.5,9.5c27.4-16.6,52.8-36.2,75.7-58.4l-7.7-7.7C702.8,756.4,678.1,775.5,651.6,791.5z"/>
	<path class="st0" d="M130.4,582.2c2.3-5.7-0.5-12.3-6.2-14.6c-0.1,0-0.1-0.1-0.2-0.1c-6.3-2.1-13.2,1-16,7
		c-2.3,5.9,0.6,12.5,6.5,14.8l0,0c3.1,1.1,6.4,0.9,9.3-0.6C126.8,587.7,129.2,585.3,130.4,582.2z"/>
	<path class="st0" d="M799.6,637.8l9.5,5.5c15.5-28,27.8-57.6,36.6-88.4l-10.6-2.8C826.5,581.9,814.6,610.6,799.6,637.8z"/>
	<path class="st0" d="M735.6,724.3l7.7,7.7c22.2-23,41.7-48.5,58.2-75.9l-9.5-5.5C776.1,677.3,757.1,702,735.6,724.3z"/>
	<path class="st0" d="M850.9,445.6c-0.5,31-4.5,61.9-12,92l10.6,2.8c7.7-31.1,11.8-62.9,12.4-94.9L850.9,445.6z"/>
	<path class="st0" d="M77.5,238.8l-9.5-5.5c-15.6,28-27.9,57.7-36.8,88.5l10.6,2.8C50.4,294.8,62.4,266,77.5,238.8z"/>
	<path class="st0" d="M553,834.8l2.8,10.6c30.7-8.9,60.4-21.3,88.3-36.9l-5.5-9.5C611.6,814.2,582.8,826.2,553,834.8z"/>
	<path class="st0" d="M339.8,760.6l-7.6-2.3l-3.2,10.3l7.2,2.2c5,1.6,8,0.6,9.1-2.8C346.4,764.6,344.6,762.1,339.8,760.6z"/>
	<path class="st0" d="M336.6,849.5c31.1,7.7,62.9,11.8,95,12.3v-10.9c-31.1-0.5-62-4.5-92.1-11.9L336.6,849.5z"/>
	<path class="st0" d="M534.6,120.5c3.3,1.1,6.8,0.7,9.8-1c3.2-1.8,5.4-4.8,6.4-8.4c1.2-3.5,0.9-7.3-0.8-10.5
		c-3.2-6.2-10.9-8.6-17-5.3c-0.1,0-0.2,0.1-0.2,0.1c-6.4,3.9-8.9,12-5.7,18.8C528.6,117.3,531.3,119.6,534.6,120.5z"/>
	<path class="st0" d="M836.1,438.4c0-1.9,0-3.7-0.1-5.5c-10.2,15.6-26.3,26.4-44.5,30.1c-0.6,8.7-1.5,17.3-2.7,25.8l-14.8-2.1
		c1.1-7.4,1.9-14.9,2.4-22.5c-18-0.4-35.2-8-47.7-21c-2-2.1-3.9-4.3-5.6-6.6c0,0.6,0,1.3,0,1.9c0,40.1-8.5,79.7-24.9,116.3
		c2.6,19.4-0.6,36.7-10.1,50.9c-7.2,10.7-20.2,22.8-43.7,29c-42.2,44.4-97.5,74-157.8,84.4c-14.5,12.6-30.5,19.5-47.4,19.5
		c-16.7,0-32.5-6.7-46.9-19c-61.5-10.1-118-40.1-160.8-85.5c-21.9-6.4-34.2-18-41.2-28.3c-9-13.4-12.3-29.6-10.5-47.6
		c-17.4-37.4-26.4-78.2-26.4-119.5c0-0.6,0-1.3,0-1.9c-1.7,2.3-3.6,4.5-5.6,6.6c-12.5,13-29.7,20.6-47.7,21
		c0.6,7.5,1.4,15.1,2.4,22.5L87.7,489c-1.2-8.5-2.1-17.2-2.7-25.8c-18.3-3.6-34.3-14.5-44.5-30.1c0,1.8-0.1,3.7-0.1,5.5
		c0,219.3,178.4,397.7,397.7,397.7C657.7,836.1,836.1,657.7,836.1,438.4z M752.1,533.5c1.9-6.4,5.8-10.7,11.6-12.8l3.7,7.3
		c-3.6,1.5-6.3,4.5-7.5,8.2c-1.2,3.8-0.5,6.1,1.9,6.8c1,0.2,2.1-0.1,2.8-0.9c1.1-1,1.9-2.2,2.6-3.5c0.9-1.6,1.9-3.2,3-4.7
		c1.1-1.6,2.3-3.1,3.6-4.5s2.9-2.3,4.7-2.9c2-0.6,4.1-0.5,6,0.1c3.4,1,6.1,3.5,7.4,6.8c1.5,3.6,1.6,7.7,0.3,11.4
		c-1,3.9-3.1,7.4-6,10.2c-2.4,2.4-5.4,4-8.7,4.6l-3.3-7.7c2.3-0.6,4.5-1.8,6.3-3.4c1.7-1.6,3-3.6,3.7-5.9c0.6-1.5,0.7-3.2,0.3-4.8
		c-0.3-1.1-1.1-1.9-2.1-2.2c-1.1-0.3-2.3,0-3.1,0.8c-1.1,1-2.1,2.1-2.8,3.4c-0.9,1.4-1.9,3-3,4.7c-1.1,1.6-2.3,3.1-3.6,4.5
		s-2.9,2.3-4.7,2.9c-2,0.6-4.1,0.5-6.1-0.1c-3.2-1-5.8-3.4-6.9-6.6C750.9,541.8,750.8,537.9,752.1,533.5z M748,550.2l7.6,3.2
		l-5,11.8l29.1,12.3l-3.4,8.1l-29.1-12.3l-5,11.8l-7.6-3.2L748,550.2z M719.5,609.1l30.2-5.2L729,592.3l4.2-7.5l34.7,19.6l-3.4,5.9
		l-30.1,5.2l20.6,11.6l-4.2,7.5L716.1,615L719.5,609.1z M712.9,619.9l6.7,4.9l-12.8,17.5l6,4.4l12-16.3l6.4,4.7l-12,16.3l6.4,4.7
		l13.1-17.9l6.7,4.9L727,668l-32.2-23.6L712.9,619.9z M85.1,546.3c-1.3-3.8-1.5-7.9-0.7-11.8c0.7-3.3,2.3-6.3,4.7-8.7l7,4.6
		c-1.6,1.8-2.7,4-3.3,6.3c-0.6,2.3-0.5,4.7,0.2,7c0.4,1.6,1.2,3,2.4,4.2c0.8,0.7,1.9,1,3,0.7c1.1-0.4,1.9-1.3,2.1-2.4
		c0.4-1.4,0.6-2.9,0.4-4.4c-0.1-1.7-0.1-3.5-0.1-5.6c0-1.9,0.2-3.8,0.5-5.8c0.3-1.8,1.1-3.5,2.3-5c1.3-1.6,3.1-2.7,5.1-3.3
		c3.2-0.9,6.7-0.3,9.4,1.6c3.1,2.1,5.3,5.3,6.7,9.6c1.9,6.4,1.1,12.1-2.5,17.1l-7.2-4c2.2-3.2,2.8-7.3,1.7-11
		c-1.2-3.8-2.9-5.4-5.3-4.6c-1,0.4-1.7,1.2-1.8,2.3c-0.3,1.4-0.4,2.9-0.3,4.4c0.1,1.9,0.2,3.7,0.1,5.6c0,1.9-0.2,3.8-0.5,5.8
		c-0.3,1.8-1.1,3.6-2.3,5c-1.3,1.6-3.1,2.7-5.1,3.3c-3.4,1.1-7,0.5-9.9-1.5C88.4,553.4,86.1,550.1,85.1,546.3z M100.3,586.8
		c-4.4-10.3,0.4-22.2,10.7-26.6c10.3-4.4,22.2,0.4,26.6,10.7c4.4,10.3-0.4,22.2-10.7,26.6c-4.9,2.1-10.4,2.2-15.3,0.2
		C106.5,595.8,102.4,591.8,100.3,586.8L100.3,586.8z M122.8,629.9c-3.2-5.3-4.1-10.5-2.8-15.7c1.3-5.1,4.7-9.3,10-12.5
		c4.6-2.9,10.2-3.9,15.5-2.6c5.4,1.3,9.6,4.5,12.8,9.7c1.8,2.8,2.9,6,3.2,9.4c0.3,2.9-0.1,5.8-1.4,8.4l-7.8-2.3
		c0.7-1.7,0.9-3.6,0.6-5.4c-0.2-1.8-0.8-3.5-1.7-5c-1.5-2.9-4.2-5-7.3-5.8c-6.5-1.7-13.2,2.1-14.9,8.6c-0.9,3.2-0.4,6.7,1.4,9.6
		c2.1,3.7,5.9,6.2,10.2,6.7l-2.1,7.4c-3.2-0.2-6.2-1.2-8.9-3C126.8,635.3,124.5,632.8,122.8,629.9z M136.9,650.3l32.4-23.3l5.2,7.2
		l-32.4,23.3L136.9,650.3z M174.8,684.4l-6.3,5.4l-20.1-23.6l30.3-25.9l19.8,23.2l-6.3,5.4l-14.1-16.5l-5.6,4.8l13.1,15.4l-6.1,5.2
		l-13.1-15.4l-6.1,5.2L174.8,684.4z M228.5,723.7l-8.6,11.4l-7-5.3l8.6-11.4L224,690l-4.6,4.9L210,686l-21.7,23l-6.4-6.1l21.7-23
		l-9.3-8.8l5.7-6l25,23.7l-0.1,0.1l7.6,5.8l-1.6,18.8l17.8-6.5l8.1,6.2L228.5,723.7z M274.3,752.3c-6.4,2-13.3-1.7-15.2-8.1
		c-2-6.4,1.7-13.3,8.1-15.2c6.4-2,13.3,1.7,15.2,8.1c1,3.2,0.6,6.6-1,9.5C279.9,749.4,277.3,751.5,274.3,752.3z M303.5,749.5
		l-11.1-5.2l-2.1,4.5l10.4,4.9l-2,4.3l-10.4-4.9l-3.6,7.6l-4.6-2.2l9.7-20.8l15.7,7.4L303.5,749.5z M354.1,770.8
		c-1,3.5-3.5,6.4-6.8,8c-3.4,1.7-7.9,1.7-13.4,0l-7.3-2.3l-3.7,12l-8.4-2.6l11.8-38.1l15.8,4.9c2.7,0.8,5.3,2,7.6,3.6
		c1.7,1.2,3.1,2.8,4.1,4.7c0.7,1.5,1.1,3.2,1.2,4.9C354.9,767.5,354.6,769.2,354.1,770.8L354.1,770.8z M390.3,804.2l-8.7-1.6
		l2.8-15.7l-17.4-3.1l-2.8,15.7l-8.7-1.6l7.1-39.2l8.7,1.6l-2.8,15.4l17.4,3.1l2.8-15.4l8.7,1.6L390.3,804.2z M423.1,792.3
		l-0.8,14.3l-8.8-0.5l0.8-14.3l-14.6-26.4l10.5,0.6l9.1,16.5l11.1-15.4l10.2,0.6L423.1,792.3z M470.9,803c-2.9,2.6-6.6,4.1-10.5,4.2
		c-4,0.3-8-0.4-11.6-2.1c-3-1.4-5.6-3.7-7.3-6.6l6.1-5.7c1.4,2,3.2,3.6,5.3,4.7c2.1,1.1,4.5,1.6,6.8,1.4c1.6,0,3.2-0.4,4.6-1.3
		c0.9-0.6,1.4-1.6,1.4-2.7c-0.1-1.1-0.8-2.1-1.8-2.6c-1.3-0.7-2.7-1.2-4.2-1.5c-1.7-0.3-3.5-0.7-5.4-1.3c-1.9-0.5-3.7-1.1-5.5-1.9
		c-1.7-0.7-3.2-1.9-4.3-3.4c-1.2-1.7-1.9-3.7-2-5.7c-0.2-3.4,1.3-6.6,3.8-8.8c2.7-2.6,6.4-4,10.9-4.2c6.7-0.4,12,1.8,16,6.5l-5.6,6
		c-2.6-2.9-6.4-4.4-10.3-4.2c-4,0.2-5.9,1.6-5.8,4.1c0.1,1,0.8,1.9,1.8,2.3c1.3,0.6,2.7,1.1,4.2,1.3c1.8,0.3,3.6,0.7,5.4,1.2
		c1.9,0.5,3.7,1.1,5.5,1.9c1.7,0.7,3.2,1.9,4.3,3.4c1.2,1.7,1.9,3.6,2,5.7C474.9,797.2,473.5,800.6,470.9,803L470.9,803z M484,804.1
		l-5.3-39.5l8.8-1.2l5.3,39.5L484,804.1z M530.9,793.9c-2.7,2.1-5.8,3.5-9.1,4.2c-6,1.4-11.3,0.6-15.7-2.3
		c-4.4-2.9-7.3-7.3-8.7-13.4c-1.3-5.3-0.5-10.9,2.4-15.6c2.9-4.7,7.3-7.7,13.2-9.1c3.2-0.8,6.6-0.8,9.9-0.1c2.8,0.6,5.4,2,7.5,3.9
		l-4.6,6.6c-1.4-1.2-3.1-2-5-2.3c-1.8-0.4-3.6-0.4-5.3,0c-3.2,0.6-6,2.4-7.8,5.1c-3.7,5.6-2.1,13.1,3.5,16.8
		c2.8,1.8,6.2,2.4,9.5,1.7c4.2-0.8,7.8-3.7,9.6-7.6l6.4,4.4C535.4,789.4,533.4,792,530.9,793.9z M569.2,780.3
		c-2.1,3.3-5.3,5.8-9,6.9c-3.8,1.4-7.8,1.8-11.8,1.2c-3.3-0.6-6.4-2.1-8.9-4.3l4.3-7.2c1.9,1.5,4.1,2.6,6.4,3.1
		c2.3,0.5,4.7,0.3,7-0.5c1.6-0.4,3-1.3,4.1-2.5c0.7-0.8,0.9-2,0.6-3c-0.4-1.1-1.3-1.8-2.4-2c-1.5-0.4-3-0.4-4.4-0.3
		c-1.7,0.2-3.5,0.2-5.6,0.3c-1.9,0-3.9-0.1-5.8-0.3c-1.8-0.2-3.6-0.9-5.1-2.1c-1.6-1.3-2.9-3-3.5-5c-1.1-3.2-0.6-6.7,1.3-9.5
		c1.9-3.2,5-5.6,9.3-7c6.4-2.2,12.1-1.6,17.2,1.8l-3.7,7.3c-3.3-2-7.4-2.5-11-1.2c-3.8,1.3-5.2,3.1-4.4,5.5c0.4,1,1.3,1.6,2.3,1.7
		c1.4,0.3,2.9,0.3,4.4,0.1c1.8-0.2,3.7-0.3,5.6-0.3c1.9,0,3.9,0.1,5.8,0.3c1.8,0.2,3.6,1,5.1,2.1c1.6,1.3,2.8,3,3.5,5
		C571.5,773.7,571.1,777.3,569.2,780.3z M618.3,757.2c-1.5,3.6-4.3,6.5-7.9,8.2c-3.5,2-7.5,3-11.5,2.9c-3.4-0.1-6.6-1.1-9.4-3
		l3.2-7.7c2.1,1.2,4.4,2,6.8,2.1c2.4,0.1,4.7-0.4,6.8-1.5c1.5-0.7,2.8-1.7,3.6-3.1c0.6-0.9,0.6-2.1,0.1-3.1c-0.6-1-1.6-1.6-2.7-1.6
		c-1.5-0.1-3,0-4.4,0.4c-1.6,0.4-3.5,0.8-5.5,1.1c-1.9,0.3-3.8,0.5-5.8,0.6c-1.9,0-3.7-0.4-5.3-1.3c-1.8-1-3.3-2.5-4.2-4.4
		c-1.5-3-1.6-6.5-0.2-9.6c1.4-3.5,4.2-6.2,8.2-8.4c6-3.1,11.7-3.4,17.2-0.7l-2.6,7.8c-3.6-1.5-7.6-1.4-11.1,0.4
		c-3.5,1.8-4.7,3.9-3.6,6.1c0.5,0.9,1.5,1.4,2.6,1.4c1.5,0,2.9-0.2,4.3-0.6c1.8-0.5,3.6-0.9,5.5-1.2s3.8-0.5,5.8-0.6
		c1.9,0,3.7,0.4,5.3,1.3c1.8,1,3.3,2.5,4.2,4.4C619.6,750.3,619.8,754,618.3,757.2L618.3,757.2z M638.7,747.8l-17.5-26.3l-10.6,7.1
		l-4.6-6.9l28.6-19.1l4.6,6.9l-10.7,7.1l17.5,26.3L638.7,747.8z M682,712.2c-0.5,1.6-1.3,3.1-2.2,4.5c-1,1.4-2.2,2.6-3.4,3.7
		c-3.5,3.1-8.1,4.8-12.7,4.6c-4.6-0.2-8.8-2.4-12.4-6.8L636.7,701l6.8-5.7l13.8,16.4c1.7,2.2,4.1,3.8,6.8,4.4c2.5,0.4,5.1-0.3,7-2.1
		c4.1-3.5,4-7.9-0.5-13.2l-14-16.6l6.8-5.7l14.7,17.4c1.5,1.7,2.7,3.6,3.5,5.7c0.7,1.7,1.2,3.6,1.2,5.4
		C682.8,708.9,682.5,710.6,682,712.2z M705,692.9l-8,8.6l-29.2-27.1l8.6-9.3c2.4-2.7,5.3-5,8.5-6.8c2.4-1.4,5.2-2.2,8-2.3
		c2.4,0,4.8,0.4,7.1,1.4s4.5,2.4,6.3,4.2c4.5,4.1,6.7,8.9,6.8,14.4C713.1,681.4,710.4,687.1,705,692.9L705,692.9z"/>
	<path class="st0" d="M274.4,734.8c-1.5-0.9-3.3-1.1-5-0.6c-3.6,1.3-5.7,5-4.9,8.8c0.4,1.7,1.6,3.1,3.1,3.9c1.5,0.9,3.3,1.1,5,0.6
		c1.8-0.6,3.3-1.8,4.1-3.5c1-1.6,1.2-3.5,0.7-5.3C277.1,737,275.9,735.6,274.4,734.8z"/>
	<path class="st0" d="M446.5,850.9v10.9c32-0.6,63.9-4.8,94.9-12.6l-2.8-10.6C508.5,846.2,477.6,850.3,446.5,850.9z"/>
	<path class="st0" d="M682.3,670.8l-2.5,2.7l17.1,15.9l2.5-2.7c6.3-6.8,6.5-13,0.6-18.5C694.5,663.2,688.6,664,682.3,670.8z"/>
	<path class="st0" d="M42,552.8l-10.6,2.8c8.9,30.8,21.3,60.5,36.9,88.4l9.5-5.5C62.6,611.4,50.6,582.6,42,552.8z"/>
	<path class="st0" d="M25.9,446.2H15c0.6,32,4.8,63.9,12.5,95l10.6-2.8C30.6,508.2,26.5,477.3,25.9,446.2z"/>
	<path class="st0" d="M233.7,809.1c28,15.5,57.7,27.8,88.5,36.7l2.8-10.6c-29.9-8.6-58.7-20.5-85.8-35.6L233.7,809.1z"/>
	<path class="st0" d="M75.8,656.9c16.6,27.4,36.2,52.8,58.5,75.8l7.7-7.7c-21.6-22.3-40.6-47-56.7-73.6L75.8,656.9z"/>
	<path class="st0" d="M38,339.1l-10.6-2.8c-7.7,31.1-11.9,63-12.4,95h10.9C26.5,400.2,30.5,369.2,38,339.1z"/>
	<path class="st0" d="M144.8,743.3c23.1,22.2,48.5,41.8,76,58.3l5.5-9.5c-26.6-16-51.3-35-73.7-56.5L144.8,743.3z"/>
	<polygon class="st1" points="154.3,265.4 124.2,246.4 118.9,254.8 156.9,278.8 175.2,249.9 167.3,244.9 	"/>
	<polygon class="st1" points="142.8,218.7 135.4,228 169.2,231.8 181.8,241.8 188,234 175.4,224 164.1,191.8 157,200.8 163.9,221 	
		"/>
	<path class="st1" d="M201.2,210.2c6,0.2,11.5-2.1,16.5-6.9c2.8-2.6,5-5.8,6.4-9.4c1.3-3.3,1.7-7,1.1-10.5l-8.7-0.5
		c0.5,4.8-1.3,9.6-4.8,12.9c-5,5.2-13.3,5.3-18.4,0.2c-0.3-0.2-0.5-0.5-0.7-0.8c-2.9-3-4.2-6.3-4.1-9.8c0.2-3.6,1.8-7.1,4.6-9.5
		c1.5-1.4,3.2-2.4,5.1-3.1c2-0.7,4.1-0.9,6.1-0.6l0.6-9.1c-3.2-0.7-6.5-0.5-9.6,0.6c-3.6,1.2-6.8,3.2-9.5,5.8
		c-5,4.7-7.5,10.2-7.5,16.4c-0.1,6.2,2.4,12.1,6.7,16.4C189.9,207.4,195.3,210,201.2,210.2z"/>
	<path class="st1" d="M235.5,178.8c12.9,2.4,25.3-6.1,27.7-19c2.4-12.9-6.1-25.3-19-27.7s-25.3,6.1-27.7,19
		c-1.2,6.3,0.2,12.8,3.9,18C223.9,174.3,229.4,177.8,235.5,178.8z M226.3,153c1.1-6.9,7.6-11.6,14.5-10.4c0.1,0,0.1,0,0.2,0
		c3.6,0.6,6.8,2.8,8.8,5.8c2.2,2.9,3.2,6.6,2.7,10.2c-1.2,7-7.9,11.7-14.9,10.5l0,0C230.3,167.3,225.4,160.4,226.3,153L226.3,153z"
		/>
	<polygon class="st1" points="287.3,152.3 275.6,127.8 294.3,139 296.6,137.8 299.5,116.6 311.1,140.9 320.1,136.6 300.7,96.1 
		292.6,100 289.5,125.3 267.2,112.1 258.9,116.1 278.3,156.6 	"/>
	<rect x="323.5" y="88.1" transform="matrix(0.9481 -0.318 0.318 0.9481 -18.1156 110.2036)" class="st1" width="10" height="45"/>
	<polygon class="st1" points="360.4,124.5 354.8,98.5 381.7,120 389.2,118.3 379.8,74.4 370.3,76.4 375.9,102.5 349,81 341.5,82.6 
		350.9,126.6 	"/>
	<path class="st1" d="M421.8,116.4c3.5-0.2,6.8-1.1,9.9-2.7c3-1.5,5.6-3.6,7.7-6.2l-1.1-18.1l-20.9,1.2l0.5,9l11.3-0.7l0.3,4.7
		c-2.4,1.9-5.3,3-8.3,3.1c-3.7,0.4-7.4-0.7-10.4-3c-2.7-2.2-4.2-5.5-4.5-9.8c-0.3-4.2,0.7-7.6,3-10.2c2.2-2.6,5.4-4,9.5-4.2
		c4.1-0.4,8.2,1,11.2,4l6.5-6.6c-2-2.5-4.7-4.4-7.7-5.4c-3.5-1.3-7.2-1.8-10.9-1.6c-6.8,0.4-12.2,3-16.3,7.7
		c-4.1,4.7-6,10.7-5.5,16.9c0.4,6.9,3,12.4,7.8,16.4C408.7,115,414.7,116.8,421.8,116.4z"/>
	<path class="st1" d="M487.7,119.7c3.8,0.6,7.7,0.3,11.3-0.8c3.4-1,6.5-3,9-5.6l-4.9-7.1c-3.5,3.4-8.3,4.9-13.1,4.1
		c-7.2-0.8-12.3-7.2-11.6-14.4c0-0.4,0.1-0.7,0.2-1.1c0.6-4.1,2.3-7.2,5.1-9.3c3-2.1,6.7-2.9,10.3-2.2c2,0.3,3.9,1,5.6,2.1
		c1.8,1.1,3.2,2.6,4.3,4.4l7.6-5.1c-1.4-2.9-3.6-5.4-6.3-7.2c-3.1-2.1-6.7-3.4-10.4-3.9c-6.8-1-12.6,0.4-17.6,4.2
		c-4.9,3.8-8.1,9.3-8.8,15.4c-1,6.9,0.3,12.8,3.8,17.6C475.6,115.8,480.8,118.7,487.7,119.7z"/>
	<path class="st1" d="M531.9,129.7c12.1,3.5,24.8-3.5,28.3-15.7c3.5-12.1-3.5-24.8-15.7-28.3c-12.1-3.5-24.8,3.5-28.3,15.7
		c-1.6,5.7-1,11.9,1.9,17.2C520.9,124,525.9,128.1,531.9,129.7z M526.3,103.7c0.9-3.5,3.2-6.5,6.4-8.3c6.1-3.4,13.8-1.1,17.2,5
		c0,0.1,0.1,0.2,0.1,0.2c1.7,3.2,2,7,0.8,10.5c-0.9,3.5-3.2,6.6-6.4,8.4c-6.3,3.4-14.1,1-17.4-5.3l0,0
		C525.4,111,525.1,107.2,526.3,103.7z"/>
	<polygon class="st1" points="592.8,153.7 596.7,145.3 574.8,135 589.9,102.7 580.9,98.5 561.8,139.2 	"/>
	<polygon class="st1" points="632.8,167.9 612.4,154.9 631.5,124.9 623.1,119.5 599,157.4 627.8,175.8 	"/>
	<polygon class="st1" points="666.3,195.6 647.2,179.5 653,172.6 670.4,187.3 676.2,180.4 658.8,165.8 664.2,159.4 682.8,175.1 
		688.8,167.9 662.5,145.8 633.6,180.2 660.3,202.7 	"/>
	<path class="st1" d="M674.1,208.6c-0.2,6.3,2.1,12,6.9,17.3c2.3,2.6,5.1,4.7,8.2,6.1c3,1.4,6.3,2.2,9.6,2.2l13.6-12.1l-13.9-15.6
		l-6.7,6l7.6,8.5l-3.5,3.2c-3-0.7-5.6-2.3-7.6-4.6c-2.6-2.7-4.1-6.3-4.1-10c0.1-3.5,1.7-6.7,4.9-9.6c3.2-2.8,6.4-4.2,9.8-4
		c3.4,0.2,6.4,1.8,9.2,4.8c2.9,3,4.3,7.1,3.8,11.2l9.2,1c0.8-3.1,0.6-6.4-0.5-9.4c-1.2-3.5-3-6.8-5.5-9.5c-4.5-5.1-9.9-7.8-16.1-8
		c-6.2-0.3-12.2,1.9-16.7,6.1C677,196.9,674.3,202.4,674.1,208.6z"/>
	<polygon class="st1" points="718.2,275.5 726,270.3 712.2,249.5 719.7,244.5 732.3,263.5 739.8,258.6 727.2,239.6 734.2,235 
		747.6,255.3 755.4,250.2 736.4,221.5 698.9,246.3 	"/>
	<path class="st1" d="M101.5,557.1c2-0.5,3.8-1.7,5.1-3.3c1.2-1.4,2-3.1,2.3-5s0.5-3.8,0.5-5.8c0.1-1.9,0-3.7-0.1-5.6
		c-0.1-1.5-0.1-2.9,0.3-4.4c0.1-1,0.8-1.9,1.8-2.3c2.4-0.7,4.2,0.8,5.3,4.6c1.1,3.7,0.5,7.7-1.7,11l7.2,4c3.6-4.9,4.5-10.6,2.5-17.1
		c-1.3-4.4-3.5-7.6-6.7-9.6c-2.7-2-6.2-2.6-9.4-1.6c-2,0.5-3.8,1.7-5.1,3.3c-1.2,1.4-2,3.1-2.3,5s-0.5,3.8-0.5,5.8
		c-0.1,2,0,3.9,0.1,5.6c0.1,1.5,0,3-0.4,4.4c-0.2,1.1-1,2-2.1,2.4c-1.1,0.3-2.2,0-3-0.7c-1.2-1.1-2-2.6-2.4-4.2
		c-0.7-2.3-0.8-4.7-0.2-7c0.6-2.3,1.7-4.5,3.3-6.3l-7-4.6c-2.4,2.4-4,5.4-4.7,8.7c-0.8,3.9-0.6,8,0.7,11.8c1,3.8,3.3,7.1,6.6,9.3
		C94.5,557.6,98.2,558.2,101.5,557.1z"/>
	<path class="st1" d="M127.4,597.2c10.2-4.7,14.6-16.7,9.9-26.9s-16.7-14.6-26.9-9.9c-10.2,4.7-14.6,16.7-9.9,26.9
		c2.2,4.8,6.2,8.5,11,10.4C116.7,599.8,122.5,599.6,127.4,597.2z M114.4,589.4c-5.9-2.3-8.8-8.9-6.5-14.8l0,0c2.8-6.1,9.6-9.1,16-7
		c5.8,2.2,8.7,8.7,6.5,14.4c0,0.1-0.1,0.1-0.1,0.2c-1.2,3-3.6,5.4-6.6,6.6C120.9,590.3,117.5,590.5,114.4,589.4L114.4,589.4z"/>
	<path class="st1" d="M140.7,632.8c-4.3-0.5-8.1-3-10.2-6.7c-3.3-6-1.1-13.6,4.9-16.9c2.6-1.4,5.7-1.9,8.6-1.3
		c3.1,0.9,5.8,3,7.3,5.8c0.9,1.5,1.5,3.3,1.7,5c0.2,1.8,0,3.7-0.6,5.4l7.8,2.3c1.2-2.6,1.7-5.5,1.4-8.4c-0.3-3.3-1.4-6.5-3.2-9.4
		c-3.1-5.2-7.4-8.4-12.8-9.7c-5.3-1.3-10.9-0.3-15.5,2.6c-5.3,3.2-8.6,7.3-10,12.5c-1.3,5.1-0.4,10.3,2.8,15.7
		c1.7,2.9,4.1,5.4,6.9,7.3c2.6,1.8,5.7,2.8,8.9,3L140.7,632.8z"/>
	
		<rect x="135.7" y="637.8" transform="matrix(0.8109 -0.5852 0.5852 0.8109 -346.3846 212.5339)" class="st1" width="39.9" height="8.8"/>
	<polygon class="st1" points="179.6,677.8 185.7,672.6 172.6,657.2 178.2,652.4 192.3,668.9 198.5,663.5 178.7,640.3 148.4,666.2 
		168.5,689.8 174.8,684.4 160.4,667.6 166.5,662.4 	"/>
	<polygon class="st1" points="230.9,713.5 232.5,694.7 224.9,689 225,688.9 200,665.2 194.4,671.2 203.6,680 181.9,702.9 188.3,709 
		210,686 219.3,694.9 224,690 221.5,718.4 212.8,729.8 219.9,735.1 228.5,723.7 256.8,713.1 248.7,707 	"/>
	<path class="st1" d="M282.5,737.5c-1.7-6.5-8.4-10.4-14.9-8.6c-6.5,1.7-10.4,8.4-8.6,14.9c1.7,6.5,8.4,10.4,14.9,8.6
		c3.2-0.9,5.9-3,7.5-5.8C283,743.8,283.4,740.6,282.5,737.5z M276.8,744c-0.8,1.7-2.3,2.9-4.1,3.5c-1.7,0.5-3.5,0.3-5-0.6
		c-1.5-0.8-2.7-2.3-3.1-3.9c-0.8-3.7,1.3-7.5,4.9-8.8c3.4-1,7,0.9,8,4.4v0.1C278,740.5,277.7,742.4,276.8,744z"/>
	<polygon class="st1" points="280,758.6 284.6,760.8 288.2,753.1 298.6,758 300.6,753.7 290.2,748.8 292.3,744.3 303.5,749.5 
		305.5,745.2 289.7,737.8 	"/>
	<path class="st1" d="M349.6,756.3c-2.3-1.6-4.9-2.8-7.6-3.6l-15.8-4.9l-11.8,38.1l8.4,2.6l3.7-12l7.3,2.3c5.6,1.7,10,1.7,13.4,0
		c3.3-1.6,5.8-4.5,6.8-8c0.5-1.6,0.8-3.3,0.7-5c-0.1-1.7-0.5-3.4-1.2-4.9C352.8,759,351.4,757.4,349.6,756.3z M345.4,768
		c-1.1,3.4-4.1,4.4-9.1,2.8l-7.2-2.2l3.2-10.3l7.6,2.3C344.6,762.1,346.4,764.6,345.4,768z"/>
	<polygon class="st1" points="385.9,778.8 368.4,775.7 371.2,760.3 362.5,758.7 355.4,797.9 364.1,799.5 367,783.8 384.4,786.9 
		381.6,802.6 390.3,804.2 397.3,765 388.6,763.4 	"/>
	<polygon class="st1" points="419.4,782.5 410.2,766 399.7,765.4 414.3,791.8 413.5,806.1 422.3,806.6 423.1,792.3 440.7,767.7 
		430.5,767.1 	"/>
	<path class="st1" d="M468.4,784.6c-1.8-0.7-3.6-1.4-5.5-1.9c-1.8-0.5-3.6-0.9-5.4-1.2c-1.5-0.2-2.9-0.6-4.2-1.3
		c-1-0.4-1.7-1.3-1.8-2.3c-0.1-2.5,1.8-3.9,5.8-4.1c3.9-0.2,7.6,1.4,10.3,4.2l5.6-6c-3.9-4.7-9.3-6.8-16-6.5
		c-4.5,0.3-8.2,1.7-10.9,4.2c-2.6,2.2-4,5.4-3.8,8.8c0.1,2.1,0.7,4.1,2,5.7c1.1,1.5,2.6,2.6,4.3,3.4c1.8,0.7,3.6,1.4,5.5,1.9
		c2,0.5,3.8,1,5.4,1.3c1.5,0.2,2.9,0.7,4.2,1.5c1,0.5,1.7,1.5,1.8,2.6c0,1.1-0.5,2.1-1.4,2.7c-1.4,0.9-3,1.3-4.6,1.3
		c-2.4,0.2-4.7-0.3-6.8-1.4c-2.1-1.1-4-2.7-5.3-4.7l-6.1,5.7c1.8,2.9,4.3,5.2,7.3,6.6c3.6,1.7,7.6,2.4,11.6,2.1
		c3.9-0.1,7.7-1.6,10.5-4.2c2.6-2.3,4.1-5.7,3.8-9.3c-0.1-2.1-0.8-4-2-5.7C471.6,786.5,470.1,785.3,468.4,784.6z"/>
	
		<rect x="481.3" y="763.8" transform="matrix(0.991 -0.1339 0.1339 0.991 -100.5693 72.0941)" class="st1" width="8.8" height="39.9"/>
	<path class="st1" d="M520.6,789.6c-6.7,1.3-13.2-3.2-14.5-9.9c-0.5-2.9,0-6,1.5-8.6c1.8-2.7,4.6-4.5,7.8-5.1c1.8-0.4,3.6-0.4,5.3,0
		c1.8,0.4,3.5,1.1,5,2.3l4.6-6.6c-2.1-2-4.7-3.4-7.5-3.9c-3.3-0.7-6.6-0.7-9.9,0.1c-5.9,1.3-10.3,4.3-13.2,9.1
		c-2.9,4.7-3.7,10.3-2.4,15.6c1.4,6,4.3,10.5,8.7,13.4c4.4,2.9,9.7,3.6,15.7,2.3c3.3-0.7,6.4-2.2,9.1-4.2c2.5-1.9,4.5-4.5,5.7-7.5
		l-6.4-4.4C528.4,786,524.9,788.8,520.6,789.6z"/>
	<path class="st1" d="M566.9,765.4c-1.5-1.1-3.2-1.9-5.1-2.1c-1.9-0.2-3.8-0.3-5.8-0.3c-1.9,0-3.7,0.1-5.6,0.3
		c-1.5,0.2-2.9,0.2-4.4-0.1c-1-0.1-1.9-0.8-2.3-1.7c-0.8-2.4,0.7-4.2,4.4-5.5c3.7-1.2,7.7-0.8,11,1.2l3.7-7.3
		c-5.1-3.4-10.8-4-17.2-1.8c-4.3,1.5-7.4,3.8-9.3,7c-1.9,2.8-2.3,6.3-1.3,9.5c0.6,2,1.8,3.7,3.5,5c1.5,1.1,3.2,1.8,5.1,2.1
		c1.9,0.2,3.8,0.3,5.8,0.3s3.9-0.1,5.6-0.3c1.5-0.2,3-0.1,4.4,0.3c1.1,0.2,2,1,2.4,2c0.3,1,0.1,2.2-0.6,3c-1.1,1.2-2.5,2.1-4.1,2.5
		c-2.2,0.8-4.6,1-7,0.5s-4.6-1.5-6.4-3.1l-4.3,7.2c2.5,2.3,5.5,3.8,8.9,4.3c4,0.7,8,0.2,11.8-1.2c3.7-1.2,6.9-3.6,9-6.9
		c1.9-3,2.3-6.6,1.1-10C569.7,768.4,568.5,766.7,566.9,765.4z"/>
	<path class="st1" d="M613.8,742.8c-1.6-0.9-3.5-1.4-5.3-1.3c-1.9,0.1-3.8,0.3-5.8,0.6c-1.8,0.3-3.7,0.7-5.5,1.2
		c-1.4,0.4-2.9,0.6-4.3,0.6c-1,0.1-2-0.5-2.6-1.4c-1.2-2.2,0-4.3,3.6-6.1c3.5-1.8,7.5-1.9,11.1-0.4l2.6-7.8
		c-5.5-2.6-11.3-2.4-17.2,0.7c-4,2.1-6.8,4.9-8.2,8.4c-1.4,3-1.4,6.6,0.2,9.6c0.9,1.9,2.4,3.4,4.2,4.4c1.6,0.9,3.5,1.3,5.3,1.3
		c1.9-0.1,3.8-0.3,5.8-0.6s3.8-0.7,5.5-1.1c1.4-0.4,2.9-0.5,4.4-0.4c1.1,0,2.2,0.6,2.7,1.6s0.4,2.1-0.1,3.1
		c-0.9,1.4-2.2,2.4-3.6,3.1c-2.1,1.1-4.4,1.6-6.8,1.5c-2.4-0.1-4.8-0.8-6.8-2.1l-3.2,7.7c2.8,1.9,6.1,2.9,9.4,3
		c4,0.1,8-0.9,11.5-2.9c3.5-1.7,6.3-4.6,7.9-8.2c1.4-3.2,1.3-6.9-0.4-10C617,745.3,615.6,743.8,613.8,742.8z"/>
	<polygon class="st1" points="639.2,709.5 634.6,702.6 605.9,721.7 610.5,728.6 621.1,721.5 638.7,747.8 646,742.9 628.5,716.6 	"/>
	<path class="st1" d="M678,696.1l-14.7-17.4l-6.8,5.7l14,16.6c4.5,5.3,4.6,9.7,0.5,13.2c-1.9,1.8-4.4,2.5-7,2.1
		c-2.7-0.6-5.1-2.2-6.8-4.4l-13.8-16.4l-6.8,5.7l14.5,17.2c3.6,4.3,7.8,6.6,12.4,6.8c4.7,0.2,9.2-1.5,12.7-4.6
		c1.3-1.1,2.5-2.3,3.4-3.7c1-1.4,1.7-2.9,2.2-4.5s0.8-3.3,0.7-5c-0.1-1.9-0.5-3.7-1.2-5.4C680.6,699.7,679.4,697.8,678,696.1z"/>
	<path class="st1" d="M699.9,657.4c-2.2-0.9-4.7-1.4-7.1-1.4c-2.8,0.1-5.6,0.9-8,2.3c-3.2,1.8-6,4.1-8.5,6.8l-8.6,9.3l29.2,27.1
		l8-8.6c5.4-5.8,8.1-11.5,8-17s-2.3-10.3-6.8-14.4C704.3,659.8,702.2,658.4,699.9,657.4z M699.4,686.7l-2.5,2.7l-17.1-15.9l2.5-2.7
		c6.3-6.8,12.2-7.7,17.7-2.6C705.9,673.8,705.7,679.9,699.4,686.7L699.4,686.7z"/>
	<polygon class="st1" points="745.3,643 738.7,638.2 725.6,656 719.2,651.3 731.1,635 724.7,630.3 712.7,646.6 706.8,642.2 
		719.6,624.8 712.9,619.9 694.9,644.4 727,668 	"/>
	<polygon class="st1" points="755.1,627.2 734.5,615.5 764.6,610.4 768,604.4 733.3,584.8 729,592.3 749.6,603.9 719.5,609.1 
		716.1,615 750.8,634.7 	"/>
	<polygon class="st1" points="747.2,573.4 776.3,585.7 779.8,577.6 750.6,565.3 755.6,553.5 748,550.2 734.6,581.9 742.2,585.2 	"/>
	<path class="st1" d="M759.3,551.8c2,0.7,4.1,0.7,6.1,0.1c1.8-0.5,3.4-1.5,4.7-2.9s2.5-2.9,3.6-4.5c1.2-1.7,2.2-3.2,3-4.7
		c0.7-1.3,1.7-2.5,2.8-3.4c0.8-0.8,2-1.1,3.1-0.8c1,0.3,1.8,1.2,2.1,2.2c0.4,1.6,0.2,3.3-0.3,4.8c-0.7,2.3-1.9,4.3-3.7,5.9
		c-1.8,1.6-3.9,2.8-6.3,3.4l3.3,7.7c3.3-0.7,6.3-2.3,8.7-4.6c2.9-2.8,4.9-6.3,6-10.2c1.3-3.7,1.1-7.7-0.3-11.4
		c-1.3-3.3-4-5.8-7.4-6.8c-2-0.6-4.1-0.7-6-0.1c-1.8,0.5-3.4,1.5-4.7,2.9s-2.5,2.9-3.6,4.5c-1.1,1.5-2.1,3.1-3,4.7
		c-0.7,1.3-1.6,2.5-2.6,3.5c-0.7,0.8-1.8,1.1-2.8,0.9c-2.4-0.7-3-3-1.9-6.8c1.2-3.7,3.9-6.7,7.5-8.2l-3.7-7.3
		c-5.8,2.1-9.6,6.4-11.6,12.8c-1.3,4.4-1.3,8.3,0.2,11.7C753.5,548.4,756,550.8,759.3,551.8z"/>
	<path class="st1" d="M438.4,0C196.7,0,0,196.7,0,438.4s196.7,438.4,438.4,438.4c241.8,0,438.4-196.7,438.4-438.4
		C876.9,196.7,680.2,0,438.4,0z M861.8,430.6h-10.9c-0.6-31-4.6-61.9-12.1-92l10.6-2.8C857.1,366.8,861.3,398.7,861.8,430.6
		L861.8,430.6z M845.5,321.4l-10.6,2.8c-8.6-29.8-20.6-58.6-35.7-85.7l9.5-5.5C824.3,261,836.6,290.6,845.5,321.4L845.5,321.4z
		 M742.9,144.4c22.2,23,41.8,48.4,58.3,75.8l-9.5,5.5c-16.1-26.5-35-51.2-56.6-73.5L742.9,144.4z M656.5,75.5
		c27.4,16.5,52.8,36.1,75.8,58.3l-7.7,7.7c-22.3-21.5-47-40.5-73.6-56.6L656.5,75.5z M555.2,31.3c30.8,8.8,60.4,21.2,88.4,36.7
		l-5.5,9.5c-27.1-15.1-55.9-27-85.7-35.6L555.2,31.3z M445.9,15c32,0.5,63.9,4.7,94.9,12.4L538,38c-30.1-7.5-61-11.5-92.1-12.1V15z
		 M824.8,344.3c-12.4-11.3-28.4-17.8-45.2-18h-1.2c-1.4,0-2.7,0.1-4.1,0.2c-2.6-7.9-5.6-15.7-8.8-23.5l-13.8,5.7
		c2.8,6.7,5.3,13.5,7.6,20.3c-20.2,5.9-36.6,20.7-44.7,40.1c-4-15.9-9.4-31.5-16.1-46.5c2.4-19.2-1-36.2-10.3-50.1
		c-7-10.5-19.6-22.3-42.1-28.6c-42.8-45.8-99.5-76.1-161.3-86.4c-14-11.6-29.3-17.9-45.5-17.9c-16,0-31.1,6.1-45,17.5
		c-63.1,9.9-121,40.8-164.4,87.6c-20.8,6.5-32.7,17.8-39.4,27.8c-8.8,13.1-12.2,28.9-10.6,46.7c-7.4,16-13.4,32.7-17.7,49.9
		c-8.1-19.4-24.5-34.2-44.7-40.1c2.3-6.8,4.9-13.6,7.6-20.3l-13.8-5.7c-3.2,7.7-6.1,15.6-8.8,23.5c-1.4-0.1-2.7-0.2-4.1-0.2h-1.2
		c-16.8,0.3-32.9,6.7-45.2,18c42.4-174,199.5-303.5,386.4-303.5C625.3,40.8,782.4,170.3,824.8,344.3L824.8,344.3z M832.5,396.2
		c-0.6,29.4-24.6,53-54,53.1h-1c-29.9-0.5-53.7-25.2-53.1-55l0,0c0.6-29.4,24.6-53,54.1-53.1h1C809.2,341.7,833,366.3,832.5,396.2
		L832.5,396.2L832.5,396.2z M562.3,633.5c3.3,0.7,6.5,1.3,9.7,1.8c-13.6,9.2-28.1,17-43.4,23.2c1.3-2.9,2.6-6,3.9-9
		C542.9,644.8,552.8,639.5,562.3,633.5z M539.6,631c0.3-0.9,0.6-1.7,0.9-2.6c0.9,0.2,1.8,0.5,2.7,0.7
		C542.1,629.7,540.8,630.3,539.6,631z M591.5,637.8c6.3,0.6,12.5,0.9,18.4,0.9c3.3,0,6.4-0.1,9.4-0.3
		c-32.7,29.7-72.3,50.9-115.1,61.7c5.7-7.6,10.9-15.6,15.5-23.9C545.6,667.4,569.9,654.4,591.5,637.8L591.5,637.8z M610,623.8
		c-19.2,0-41.3-3.3-65.6-9.9l-13.5-3.6l-4.5,13.2c-21.7,63.6-53.4,100-87.1,100s-65.4-36.5-87.1-100l-4.5-13.2l-13.5,3.6
		c-24.3,6.5-46.3,9.9-65.6,9.9c-31.5,0-54.2-9.2-65.8-26.5c-21.3-31.8-2-87.4,51.6-148.6l8.6-9.8l-8.6-9.8
		c-9.4-10.7-18.3-22-26.5-33.7c-33.4-48.1-42.4-88.8-25.1-114.6c11.6-17.3,34.4-26.5,65.8-26.5c19.2,0,41.3,3.3,65.6,9.9l13.5,3.6
		l4.5-13.2c21.7-63.6,53.4-100,87.1-100s65.4,36.5,87.1,100l4.5,13.2l13.5-3.6c24.3-6.5,46.4-9.9,65.6-9.9
		c31.5,0,54.2,9.2,65.8,26.5c17.3,25.8,8.3,66.5-25.1,114.6c-8.2,11.7-17.1,22.9-26.5,33.7l-8.6,9.8l8.6,9.8
		c53.6,61.2,72.9,116.8,51.6,148.6C664.2,614.6,641.4,623.8,610,623.8L610,623.8z M346.4,650.1c1.3,3,2.6,6,3.9,9
		c-15.7-6.3-30.6-14.2-44.6-23.6c3.2-0.5,6.5-1.1,9.8-1.8C325.3,639.9,335.7,645.4,346.4,650.1z M334.6,629.3
		c1.2-0.3,2.4-0.6,3.6-0.9c0.4,1.1,0.8,2.3,1.2,3.4C337.8,630.9,336.2,630.1,334.6,629.3z M359.3,676.7c4.6,8.4,9.8,16.3,15.6,23.9
		c-43.8-10.6-84.2-32.1-117.6-62.4c3.7,0.3,7.4,0.4,11.4,0.4l0,0c5.6,0,11.4-0.3,17.3-0.8C308.2,654.8,332.9,667.9,359.3,676.7z
		 M220.7,437.8c0-8.3,0.5-16.7,1.5-24.9c6.4,8.7,13.5,17.3,21.1,26c-7.6,8.7-14.5,17.3-20.8,25.8
		C221.3,455.8,220.7,446.8,220.7,437.8z M211.2,480.7c-1.8,2.8-3.5,5.6-5.2,8.3c-7.3-33.2-7.5-67.6-0.4-100.8
		c1.7,2.8,3.4,5.6,5.3,8.4C205.8,424.5,205.9,453,211.2,480.7z M196.4,506.3c-4.3,8.4-7.9,17.2-10.9,26.2
		c-22.5-60.5-22.6-127.1-0.3-187.6c2.9,8.9,6.5,17.6,10.7,25.9C183.7,415.2,183.8,462.1,196.4,506.3z M312.5,243.8
		c-3.2-0.6-6.5-1.2-9.6-1.7c15.2-10.6,31.6-19.4,48.9-26.2c-1.4,2.9-2.7,5.9-4,8.9C335.4,230.2,323.7,236.5,312.5,243.8z
		 M340.4,243.3c-0.8,2.1-1.5,4.3-2.3,6.4c-2.2-0.6-4.4-1.1-6.6-1.7C334.5,246.4,337.4,244.8,340.4,243.3L340.4,243.3z M283.2,239.9
		c-4.9-0.4-9.8-0.6-14.4-0.6s-8.8,0.2-12.9,0.5c33.9-31.3,75.3-53.3,120.2-64c-5.6,7.1-10.6,14.5-15.1,22.4
		C332.8,207.5,306.5,221.6,283.2,239.9z M531.3,225.6c-1.3-3.1-2.7-6.1-4.1-9c16.8,6.7,32.8,15.4,47.6,25.8
		c-3.2,0.5-6.4,1.1-9.6,1.7C554.5,237,543.1,230.8,531.3,225.6z M546.3,248.3c-1.9,0.5-3.8,0.9-5.7,1.5c-0.7-1.9-1.3-3.8-2-5.7
		C541.2,245.4,543.7,246.8,546.3,248.3z M518.1,198.8c-4.4-7.8-9.4-15.3-14.9-22.4c43.9,10.9,84.4,32.7,117.7,63.3
		c-3.5-0.2-7.1-0.4-10.9-0.4c-5,0-10.3,0.2-15.6,0.6C571.5,222,545.7,208,518.1,198.8L518.1,198.8z M677.1,437.8
		c0,16.7-1.8,33.4-5.3,49.8c-1.7-2.7-3.5-5.5-5.3-8.3c4.9-26.8,5.1-54.3,0.3-81.1c1.9-2.8,3.7-5.6,5.4-8.4
		C675.4,405.6,677.1,421.7,677.1,437.8L677.1,437.8z M656.8,437.8c0,8.5-0.5,17-1.5,25.5c-6-8.1-12.6-16.2-19.8-24.4
		c7.2-8.2,13.9-16.4,20-24.6C656.3,422.1,656.7,429.9,656.8,437.8L656.8,437.8z M681.5,504.8c12-43.3,12.1-89,0.5-132.3
		c4.1-8,7.7-16.2,10.6-24.7c21.1,58.9,21,123.3-0.3,182.2C689.3,521.3,685.7,512.9,681.5,504.8z M152.6,394.3
		c0.5,29.9-23.3,54.5-53.1,55h-1C69,449.2,45,425.6,44.4,396.2c-0.5-29.9,23.3-54.5,53.1-55l0,0h1
		C127.9,341.3,151.9,364.9,152.6,394.3z M431,15v10.9c-31.1,0.5-62,4.6-92.1,12.1L336,27.5C367.1,19.7,399,15.6,431,15L431,15z
		 M321.6,31.3l2.8,10.6c-29.9,8.6-58.6,20.6-85.8,35.7l-5.5-9.5C261.2,52.5,290.8,40.2,321.6,31.3L321.6,31.3z M220.3,75.6l5.5,9.5
		c-26.6,16.1-51.3,35.1-73.6,56.7l-7.7-7.7C167.4,111.7,192.9,92.1,220.3,75.6L220.3,75.6z M133.8,144.5l7.7,7.7
		c-21.6,22.4-40.6,47.1-56.6,73.7l-9.5-5.5C92,193,111.6,167.5,133.8,144.5L133.8,144.5z M68,233.3l9.5,5.5
		c-15.1,27.2-27.1,56-35.7,85.8l-10.6-2.8C40.1,291,52.4,261.3,68,233.3L68,233.3z M27.4,336.2L38,339c-7.5,30.2-11.5,61.1-12,92.2
		H15C15.5,399.2,19.7,367.3,27.4,336.2z M15,446.2h10.9c0.6,31.1,4.6,62,12.2,92.2l-10.6,2.8C19.8,510.1,15.6,478.2,15,446.2z
		 M31.4,555.6l10.6-2.8c8.6,29.9,20.6,58.6,35.8,85.8l-9.5,5.5C52.7,616,40.3,586.4,31.4,555.6z M134.3,732.8
		c-22.3-23-41.9-48.4-58.5-75.8l9.5-5.5c16.1,26.6,35.1,51.3,56.7,73.6L134.3,732.8z M220.8,801.6c-27.4-16.5-52.9-36.1-76-58.3
		l7.7-7.7c22.4,21.5,47.1,40.5,73.7,56.5L220.8,801.6z M322.2,845.7c-30.8-8.8-60.5-21.1-88.5-36.7l5.5-9.5
		c27.2,15.1,56,27,85.8,35.6L322.2,845.7z M431.6,861.8c-32-0.5-63.9-4.6-95-12.3l2.8-10.6c30.2,7.4,61.1,11.5,92.1,11.9v11H431.6z
		 M40.8,438.4c0-1.8,0-3.7,0.1-5.5c10.2,15.6,26.3,26.4,44.5,30.1c0.6,8.7,1.5,17.3,2.7,25.8l14.8-2.1c-1.1-7.4-1.9-14.9-2.4-22.5
		c18-0.4,35.2-8,47.7-21c2-2.1,3.9-4.3,5.6-6.6c0,0.6,0,1.3,0,1.9c0,41.3,9,82.1,26.4,119.5c-1.8,18.1,1.5,34.2,10.5,47.6
		c6.9,10.3,19.3,22,41.2,28.3c42.8,45.4,99.3,75.4,160.8,85.5c14.4,12.3,30.2,19,46.9,19c16.9,0,32.8-6.9,47.4-19.5
		c60.3-10.4,115.7-40,157.8-84.4c23.4-6.2,36.5-18.3,43.7-29c9.5-14.2,12.6-31.5,10.1-50.9c16.5-36.6,25-76.2,24.9-116.3
		c0-0.6,0-1.3,0-1.9c1.7,2.3,3.6,4.5,5.6,6.6c12.5,13,29.7,20.6,47.7,21c-0.6,7.5-1.4,15.1-2.4,22.5l14.8,2.1
		c1.2-8.5,2.1-17.2,2.7-25.8c18.3-3.6,34.3-14.5,44.5-30.1c0,1.8,0.1,3.7,0.1,5.5c0,219.3-178.4,397.7-397.7,397.7
		C219.2,836.1,40.8,657.7,40.8,438.4z M446.5,861.8v-10.9c31.1-0.6,61.9-4.7,92.1-12.2l2.8,10.6C510.4,857,478.5,861.2,446.5,861.8z
		 M555.8,845.4l-2.8-10.6c29.8-8.6,58.6-20.6,85.7-35.8l5.5,9.5C616.2,824.1,586.6,836.5,555.8,845.4z M657.1,801l-5.5-9.5
		c26.5-16.1,51.2-35.1,73.5-56.7l7.7,7.7C709.8,764.8,684.4,784.4,657.1,801z M743.3,732l-7.7-7.7c21.5-22.4,40.5-47,56.5-73.6
		l9.5,5.5C785.1,683.5,765.5,709,743.3,732z M809,643.2l-9.5-5.5c15.1-27.1,27-55.9,35.5-85.7l10.6,2.8
		C836.8,585.6,824.6,615.2,809,643.2L809,643.2z M838.9,537.6c7.5-30.1,11.5-61,12-92h10.9c-0.5,32-4.7,63.8-12.4,94.9L838.9,537.6z
		"/>
	<path class="st1" d="M543.6,505.1L515.1,525c-4.3,3-8.4,5.8-12.4,8.5c-10.1,6.8-20.6,13.4-31.1,19.7l-24.3,14.5l25.7,11.8
		c12.1,5.6,24.6,10.7,37,15.3l15.8,5.8l3.9-16.3c3.4-14.2,6.3-29.3,8.7-44.9L543.6,505.1z M515.2,581c-11.7-4.4-23.7-9.3-36-14.9
		c10.6-6.3,21.2-13,31.7-20.1c4.3-2.9,8.5-5.8,12.7-8.7C521.4,552.5,518.5,567.1,515.2,581L515.2,581z"/>
	<path class="st1" d="M473,298.4l-25.8,11.8l24.3,14.5c10.5,6.3,21,12.9,31.1,19.7c4.1,2.8,8.3,5.6,12.4,8.5l28.5,19.9l-5.2-34.4
		c-2.4-15.7-5.3-30.8-8.7-44.9l-3.9-16.3l-15.8,5.8C497.6,287.7,485.2,292.9,473,298.4z M523.6,340.8c-4.2-2.9-8.4-5.8-12.7-8.7
		c-10.5-7-21.1-13.7-31.7-20.1c12.2-5.6,24.2-10.6,36-14.9C518.5,311,521.4,325.6,523.6,340.8z"/>
	<path class="st1" d="M446.2,574.9l-6.8-3.5l-6.8,3.5c-20.7,10.7-42,20-63.8,28l-13.7,5l4.7,13.8c1.9,5.6,3.6,10.2,5.2,14.4
		c20.2,51.5,46.6,79.9,74.3,79.9s54.2-28.4,74.3-79.9c1.6-4.2,3.3-8.7,5.2-14.4l4.7-13.8l-13.8-5
		C488.1,594.9,466.8,585.6,446.2,574.9z M439.4,701.2c-8.5,0-17.2-4.5-25.9-12.8c8.3,0.8,16.7,1.3,25.2,1.3c8.9,0,17.8-0.5,26.7-1.4
		C456.7,696.6,447.9,701.2,439.4,701.2L439.4,701.2z M478.3,672.8c-25.7,4.4-51.9,4.4-77.6,0.3c-1.7-2.4-3.4-5-5-7.8
		c29,5.5,58.7,5.4,87.6-0.2C481.6,667.7,479.9,670.3,478.3,672.8L478.3,672.8z M499.8,630.8c-2.6,6.6-5.3,12.7-8.1,18.5
		c-34.3,8.6-70.2,8.7-104.6,0.3c-2.8-5.9-5.6-12.1-8.2-18.8c-1.8-4.5-3.4-9.1-5-13.8c22.4-8.2,44.3-17.8,65.5-28.8
		c21.2,10.9,43.1,20.6,65.5,28.8C503.2,621.7,501.6,626.3,499.8,630.8L499.8,630.8z"/>
	<path class="st1" d="M405.7,579.6l25.7-11.8l-24.3-14.6c-10.5-6.3-21-12.9-31.1-19.7c-4-2.6-8-5.4-12.4-8.5l-28.5-19.9l5.2,34.4
		c2.4,15.6,5.3,30.8,8.7,44.9l3.9,16.3l15.8-5.8C381.1,590.4,393.6,585.2,405.7,579.6z M355.1,537.3c4.2,2.9,8.4,5.8,12.7,8.7
		c10.5,7,21.1,13.7,31.7,20.1c-12.2,5.6-24.2,10.6-35.9,14.9C360.2,567.1,357.4,552.5,355.1,537.3L355.1,537.3z"/>
	<path class="st1" d="M552.3,488.9l25.7-23.4c5.7-5.2,11.3-10.5,16.6-15.8l10.7-10.6l-10.7-10.6c-5.3-5.2-10.9-10.6-16.6-15.8
		l-25.7-23.4L553,424c0.1,5.1,0.2,10.2,0.2,15.1s-0.1,10-0.2,15.1L552.3,488.9z M567.9,423.7c5.6,5.1,11,10.2,16.2,15.4
		c-5.2,5.2-10.6,10.3-16.2,15.4c0.1-5.1,0.2-10.2,0.2-15.4C568.1,433.9,568,428.7,567.9,423.7z"/>
	<path class="st1" d="M550.2,373.3l0.6,6.3l4.9,4c15.6,12.6,30.3,25.7,43.6,38.8l11.4,11.2l10.4-12.1c8.4-9.7,16.2-19.8,23.6-30.2
		c31.6-45.4,40.5-83.2,25-106.2c-10.3-15.4-30.4-23.2-59.6-23.2c-18.4,0-39.5,3.2-62.9,9.4l-14.1,3.8l3.5,14.2
		C543.1,316.8,547.7,344.9,550.2,373.3z M657.2,293.2c4.5,6.7,5.7,15.8,4.1,26.8c-7.7-14.4-16.7-28.1-27-40.7
		C643.7,281.6,652.3,285.8,657.2,293.2L657.2,293.2z M610,276.7c1.4,0,2.8,0,4.2,0.1c17.1,18.7,31.2,39.9,41.6,63
		c-1.1,2.8-2.2,5.7-3.6,8.6c-11.2-26.6-27.3-50.8-47.4-71.5C606.6,276.7,608.3,276.7,610,276.7z M587.1,278.3
		c25.5,23.7,45,53.2,56.9,86c-3.4,5.9-7.3,12.1-11.6,18.3c-7,10.1-14.6,19.7-22.6,29c-13.6-13.3-28.5-26.6-44.6-39.7
		c-2.5-29.1-7.2-57.9-14.1-86.3C562.8,282.3,574.9,279.9,587.1,278.3z"/>
	<path class="st1" d="M279.5,422.3c13.3-13.1,28-26.2,43.6-38.8l4.9-4l0.6-6.3c2.5-28.3,7-56.5,13.7-84.1l3.5-14.2l-14.1-3.8
		c-23.3-6.3-44.5-9.4-62.9-9.4c-29.3,0-49.3,7.8-59.6,23.2c-15.4,23.1-6.6,60.8,25,106.2c7.3,10.5,15.2,20.6,23.6,30.2l10.4,12.1
		L279.5,422.3z M221.5,293.2c4.7-7,12.6-11.1,21.4-13.5c-9.7,12-18.3,24.9-25.7,38.5C215.9,308,217.3,299.5,221.5,293.2L221.5,293.2
		z M222.3,338.2c10.4-22.5,24.2-43.2,40.9-61.4c1.9-0.1,3.7-0.1,5.5-0.1c1.3,0,2.6,0.1,3.9,0.1c-19.7,20.3-35.6,44.1-46.8,70.1
		C224.5,343.9,223.3,341,222.3,338.2L222.3,338.2z M246.4,382.6c-4.7-6.8-8.8-13.3-12.4-19.7c11.9-32.3,31.3-61.4,56.6-84.8
		c12.6,1.6,25,4.1,37.2,7.5c-6.8,28.4-11.5,57.3-14.1,86.3c-16.2,13.1-31.1,26.4-44.6,39.7C261,402.4,253.4,392.7,246.4,382.6
		L246.4,382.6z"/>
	<path class="st1" d="M326.4,389.2l-25.7,23.4c-5.8,5.2-11.4,10.6-16.6,15.8L273.4,439l10.7,10.6c5.3,5.2,10.9,10.5,16.6,15.8
		l25.7,23.4l-0.7-34.7c-0.1-5.1-0.2-10.2-0.2-15.1s0.1-10,0.2-15.1L326.4,389.2z M310.8,454.4c-5.6-5.1-11-10.2-16.2-15.4
		c5.2-5.2,10.6-10.3,16.2-15.4c-0.1,5.1-0.2,10.2-0.2,15.4C310.7,444.2,310.7,449.3,310.8,454.4L310.8,454.4z"/>
	<path class="st1" d="M328.5,504.7l-0.6-6.3l-4.9-4c-15.5-12.6-30.2-25.7-43.5-38.8l-11.4-11.2l-10.4,12.1
		c-8.4,9.7-16.3,19.9-23.7,30.4c-31.6,45.4-40.5,83.2-25,106.2c10.3,15.4,30.4,23.2,59.6,23.2l0,0c18.4,0,39.5-3.2,62.9-9.4
		l14.1-3.8l-3.5-14.2C335.6,561.2,331,533.1,328.5,504.7z M221.5,584.9c-4.5-6.7-5.7-15.9-4.1-26.9c8,14.6,17.3,28.3,28,41.1
		C235.6,596.8,226.6,592.5,221.5,584.9L221.5,584.9z M268.7,601.4c-1,0-2,0-3.1,0c-17.5-18.5-32-39.8-42.9-62.9
		c1.1-2.8,2.2-5.6,3.5-8.6c11.6,26.6,28.1,50.8,48.6,71.3C272.8,601.4,270.8,601.4,268.7,601.4L268.7,601.4z M292.8,599.7
		c-26-23.4-46-52.8-58.3-85.5c3.5-6.1,7.4-12.3,11.8-18.7c7.1-10.1,14.7-19.8,22.8-29.2c13.7,13.5,28.6,26.8,44.5,39.8
		c2.5,29.1,7.2,58,14.1,86.5C316.3,595.6,304.6,598,292.8,599.7L292.8,599.7z"/>
	<path class="st1" d="M538.2,379.3c-12.9-10-26.3-19.6-39.7-28.6c-16.6-11.1-34.1-21.8-52-31.6l-7.2-4l-7.2,4
		c-17.8,9.8-35.3,20.4-52,31.6c-13.4,9-26.8,18.6-39.7,28.6l-5.3,4.1l-0.5,6.7c-1.1,16.3-1.7,32.8-1.7,49s0.6,32.6,1.7,49l0.5,6.7
		l5.3,4.1c12.9,10,26.3,19.6,39.7,28.6c16.6,11.1,34.1,21.7,51.9,31.6l7.2,4l7.2-4c17.9-9.8,35.4-20.5,51.9-31.6
		c13.4-9,26.8-18.6,39.7-28.6l5.3-4.1l0.5-6.7c1.1-16.3,1.7-32.8,1.7-48.9c0-16.2-0.6-32.6-1.7-49l-0.5-6.7L538.2,379.3z M529.1,487
		c-12.4,9.6-25.4,19-38.9,28c-16.8,11.3-33.9,21.6-50.8,30.9c-17-9.3-34-19.6-50.8-30.9c-13.5-9-26.5-18.4-38.9-28
		c-1.1-15.7-1.7-31.7-1.7-47.9s0.6-32.3,1.7-47.9c12.4-9.6,25.4-19,38.9-28c16.8-11.3,33.9-21.6,50.8-30.9c17,9.3,34,19.6,50.8,30.9
		c13.5,9,26.5,18.4,38.9,28c1.1,15.7,1.7,31.7,1.7,47.9S530.2,471.3,529.1,487z"/>
	<path class="st1" d="M432.6,303.2l6.8,3.5l6.8-3.5c20.7-10.7,42-20,63.8-28l13.7-5l-4.7-13.8c-1.9-5.5-3.6-10.3-5.2-14.5
		c-20.2-51.5-46.6-79.9-74.3-79.9s-54.2,28.4-74.3,79.9c-1.7,4.2-3.3,8.8-5.2,14.5l-4.7,13.8l13.7,5
		C390.6,283.2,411.9,292.5,432.6,303.2z M439.4,176.9c7.5,0,15.3,3.6,23,10.2c-7.8-0.7-15.7-1.1-23.7-1.1c-7.5,0-14.9,0.4-22.3,1
		C424.1,180.4,431.9,176.9,439.4,176.9L439.4,176.9z M402.7,202.2c24.4-3.7,49.2-3.6,73.5,0.2c1.8,2.5,3.6,5.1,5.3,7.8
		c-27.8-5.3-56.3-5.4-84.2-0.3C399.1,207.3,400.9,204.6,402.7,202.2L402.7,202.2z M378.9,247.3c3.1-7.8,6.3-15,9.6-21.6
		c33.5-8,68.4-7.9,101.8,0.3c3.3,6.5,6.5,13.6,9.5,21.3c1.7,4.5,3.4,9.1,5,13.8c-22.4,8.2-44.3,17.8-65.5,28.8
		c-21.2-10.9-43.1-20.6-65.5-28.8C375.5,256.4,377.2,251.8,378.9,247.3L378.9,247.3z"/>
	<path class="st1" d="M335.1,372.9l28.5-19.9c4.1-2.9,8.3-5.7,12.4-8.5c10.1-6.7,20.5-13.4,31.1-19.7l24.3-14.5l-25.7-11.8
		c-12.1-5.6-24.6-10.7-37-15.3l-15.8-5.8l-3.9,16.4c-3.4,14.2-6.3,29.3-8.7,44.9L335.1,372.9z M363.5,297.1
		c11.7,4.4,23.7,9.3,36,14.9c-10.6,6.3-21.2,13-31.7,20.1c-4.3,2.9-8.5,5.8-12.7,8.7C357.4,325.6,360.2,311,363.5,297.1L363.5,297.1
		z"/>
	<path class="st1" d="M644.6,486.9c-7.4-10.5-15.3-20.7-23.7-30.4l-10.4-12.1l-11.4,11.2c-13.3,13.1-28,26.2-43.5,38.8l-4.9,4
		l-0.6,6.3c-2.5,28.4-7,56.5-13.7,84.2l-3.5,14.2l14.1,3.8c23.3,6.3,44.5,9.4,62.9,9.4c29.3,0,49.3-7.8,59.6-23.2
		C685,570.1,676.2,532.4,644.6,486.9z M551,592.5c6.8-28.4,11.6-57.3,14.1-86.5c15.9-13,30.8-26.3,44.5-39.8
		c8.1,9.3,15.7,19.1,22.8,29.2c4.1,5.9,7.8,11.8,11.1,17.4c-12.2,33.2-32.4,62.9-58.6,86.6C573.4,597.9,562.1,595.5,551,592.5z
		 M610,601.4c-2.4,0-4.9-0.1-7.4-0.2c20.8-20.9,37.5-45.5,49.1-72.6c1.3,2.9,2.6,5.7,3.6,8.4c-10.9,23.7-25.6,45.4-43.5,64.4
		C611.2,601.4,610.6,601.4,610,601.4L610,601.4z M657.2,584.9c-5.4,8-15.1,12.3-25.5,14.5c11.2-13.4,21-27.8,29.2-43.2
		C663.1,568,661.9,577.8,657.2,584.9L657.2,584.9z"/>
	<path class="st1" d="M439.4,410.9c-15.3,0-27.6,12.4-27.6,27.6s12.4,27.6,27.6,27.6c15.3,0,27.6-12.4,27.6-27.6
		S454.6,410.9,439.4,410.9L439.4,410.9z M439.4,451.2c-7,0-12.7-5.7-12.7-12.7s5.7-12.7,12.7-12.7s12.7,5.7,12.7,12.7l0,0
		C452.1,445.5,446.4,451.2,439.4,451.2z"/>
</g>
<text transform="matrix(1 0 0 1 57.3861 411.8887)" class="st1 st2 st3">‘22</text>
<text transform="matrix(1 0 0 1 737.0505 413.2518)" class="st1 st2 st3">‘23</text>
</svg>
